#!OML:ASF F:\VICON\USERDATA\INSTALL\rory3\rory3.ASF
:FULLY-SPECIFIED
:DEGREES
231
root 9.45342 17.9625 3.19585 -176.69 -1.68279 180.499
lowerback 13.5662 4.03922 -0.666609
upperback 2.4267 4.93358 -0.738886
thorax -5.01327 2.31308 -1.2579
lowerneck -18.6596 16.3899 -3.99924
upperneck 44.0709 22.2653 3.42841
head 18.8798 7.36895 6.29187
rclavicle -4.37078e-014 1.14301e-014
rhumerus -43.6487 -23.2967 -63.3965
rradius 29.765
rwrist 7.69393
rhand -11.6736 6.96476
rfingers 7.12502
rthumb 14.3715 -22.5177
lclavicle -4.37078e-014 1.14301e-014
lhumerus -23.1324 4.68166 84.8256
lradius 40.7029
lwrist -0.995285
lhand -16.9334 32.0602
lfingers 7.12502
lthumb 9.29964 61.835
rfemur -27.1922 -4.03528 19.5771
rtibia 28.8144
rfoot -3.45894 9.13537
rtoes -0.410844
lfemur 5.6492 -15.2335 -26.0953
ltibia 22.6392
lfoot -1.93196 -19.8809
ltoes 10.5469
232
root 9.41114 17.9627 3.33909 -176.59 -1.13321 180.211
lowerback 13.6568 4.00914 -1.13509
upperback 2.4764 4.8101 -0.794594
thorax -5.04645 2.25361 -1.03806
lowerneck -18.6434 16.3257 -4.15297
upperneck 43.9441 22.1321 3.57387
head 18.744 7.34095 6.32907
rclavicle -2.56681e-014 8.84592e-015
rhumerus -43.073 -23.3963 -63.6324
rradius 29.7108
rwrist 7.98298
rhand -11.6365 6.50385
rfingers 7.12502
rthumb 14.4072 -22.9761
lclavicle -2.56681e-014 8.84592e-015
lhumerus -22.972 4.49984 84.8175
lradius 40.8927
lwrist -0.821783
lhand -17.1113 32.038
lfingers 7.12502
lthumb 9.12796 61.8205
rfemur -27.6824 -4.17238 19.0199
rtibia 28.7909
rfoot -4.24327 10.4375
rtoes -3.7697
lfemur 5.30928 -15.0971 -26.4691
ltibia 22.0989
lfoot -2.26811 -19.7696
ltoes 13.3514
233
root 9.36936 17.9536 3.47202 -176.578 -0.583981 180.223
lowerback 13.6841 3.93483 -1.33857
upperback 2.54031 4.67563 -0.751727
thorax -5.01491 2.1868 -0.855047
lowerneck -18.4758 16.3472 -4.14804
upperneck 43.7185 22.1506 3.48911
head 18.5801 7.37316 6.25018
rclavicle 3.49364e-014 -3.08116e-015
rhumerus -42.5587 -23.4343 -63.8569
rradius 29.7095
rwrist 8.33572
rhand -11.5245 6.38486
rfingers 7.12502
rthumb 14.5152 -23.0874
lclavicle 3.49364e-014 -3.08116e-015
lhumerus -22.8647 4.50764 84.7469
lradius 40.9917
lwrist -0.698873
lhand -17.3272 31.8386
lfingers 7.12502
lthumb 8.9196 61.63
rfemur -28.0204 -4.2579 18.7972
rtibia 28.9279
rfoot -5.42009 11.4192
rtoes -7.74151
lfemur 5.08777 -15.0204 -26.537
ltibia 21.685
lfoot -2.78573 -19.7
ltoes 15.253
234
root 9.32329 17.9362 3.60334 -176.584 -0.00121043 180.247
lowerback 13.754 3.48868 -1.48013
upperback 2.53896 4.68993 -0.827736
thorax -5.05397 2.46159 -0.885516
lowerneck -18.3269 16.3366 -3.96667
upperneck 43.6624 22.0197 3.45473
head 18.5544 7.34583 6.16844
rclavicle -2.08724e-014 4.96962e-015
rhumerus -42.3594 -23.5345 -64.1706
rradius 29.9443
rwrist 8.59917
rhand -11.4547 6.42171
rfingers 7.12502
rthumb 14.5825 -23.0457
lclavicle -2.08724e-014 4.96962e-015
lhumerus -22.8736 4.17075 84.561
lradius 41.1042
lwrist -0.455709
lhand -17.4558 31.8307
lfingers 7.12502
lthumb 8.79554 61.6274
rfemur -28.2911 -4.33828 18.6105
rtibia 29.0547
rfoot -6.78052 12.0393
rtoes -10.5649
lfemur 4.79057 -14.7729 -26.6028
ltibia 21.5855
lfoot -3.8356 -19.7127
ltoes 14.121
235
root 9.27385 17.932 3.7329 -176.626 0.604159 180.195
lowerback 13.9214 3.46918 -1.50672
upperback 2.49724 4.6498 -0.924798
thorax -5.18335 2.44075 -0.978863
lowerneck -18.234 16.234 -4.0361
upperneck 43.7809 21.703 3.7096
head 18.5528 7.22593 6.22391
rclavicle -6.20208e-014 1.37161e-014
rhumerus -42.3578 -23.6232 -64.4511
rradius 30.3632
rwrist 8.70936
rhand -11.425 6.34438
rfingers 7.12502
rthumb 14.6111 -23.1209
lclavicle -6.20208e-014 1.37161e-014
lhumerus -23.0357 3.33291 84.4924
lradius 41.2789
lwrist 0.49655
lhand -17.9683 32.1916
lfingers 7.12502
lthumb 8.30095 62.0085
rfemur -28.539 -4.43235 18.3794
rtibia 29.3132
rfoot -8.02117 12.5098
rtoes -11.0613
lfemur 4.45508 -14.2653 -26.7236
ltibia 21.5043
lfoot -4.68692 -19.8451
ltoes 12.4732
236
root 9.22397 17.9357 3.85824 -176.698 1.19435 180.129
lowerback 14.0051 3.42256 -1.60593
upperback 2.52361 4.5736 -0.954048
thorax -5.20632 2.40599 -0.945092
lowerneck -18.1181 16.128 -4.21126
upperneck 43.7514 21.4744 3.85428
head 18.4578 7.13174 6.24282
rclavicle 1.18277e-014 3.97569e-015
rhumerus -42.1079 -23.7574 -64.6352
rradius 30.5229
rwrist 8.93541
rhand -11.5999 6.32742
rfingers 7.12502
rthumb 14.4425 -23.15
lclavicle 1.18277e-014 3.97569e-015
lhumerus -23.2026 2.75059 84.4697
lradius 41.5289
lwrist 1.27683
lhand -18.3239 31.2769
lfingers 7.12502
lthumb 7.95774 61.1071
rfemur -28.7738 -4.62385 18.1995
rtibia 29.7153
rfoot -9.00988 12.8088
rtoes -10.4808
lfemur 4.03 -13.6862 -26.8674
ltibia 21.5851
lfoot -5.01613 -19.9732
ltoes 12.4341
237
root 9.17209 17.9476 3.98443 -176.757 1.73619 180.173
lowerback 13.9745 3.33929 -1.58009
upperback 2.66121 4.48253 -0.947789
thorax -5.04261 2.36649 -0.927936
lowerneck -18.1279 16.0454 -4.32957
upperneck 43.693 21.3571 3.85688
head 18.4131 7.06848 6.23046
rclavicle -5.4964e-014 1.76918e-014
rhumerus -41.5828 -24.1107 -64.8268
rradius 30.4989
rwrist 9.21233
rhand -11.6674 6.62852
rfingers 7.12502
rthumb 14.3775 -22.8536
lclavicle -5.4964e-014 1.76918e-014
lhumerus -23.0137 2.57949 84.3033
lradius 41.5278
lwrist 0.798548
lhand -18.3323 29.302
lfingers 7.12502
lthumb 7.94964 59.1325
rfemur -29.0839 -4.74933 18.1098
rtibia 30.2102
rfoot -9.49046 12.8016
rtoes -9.41363
lfemur 3.51095 -13.1351 -26.9057
ltibia 21.8407
lfoot -5.097 -19.9383
ltoes 13.9867
238
root 9.12129 17.9372 4.10895 -176.83 2.23657 180.283
lowerback 13.9786 3.22181 -1.46562
upperback 2.74249 4.35159 -0.935086
thorax -4.9517 2.30339 -0.951312
lowerneck -18.077 15.9994 -4.29165
upperneck 43.6896 21.3054 3.64994
head 18.4548 7.00025 6.12145
rclavicle -4.87022e-015 -2.18663e-015
rhumerus -41.1108 -24.0865 -65.2117
rradius 30.5917
rwrist 9.0907
rhand -11.7 6.84619
rfingers 7.12502
rthumb 14.3461 -22.6381
lclavicle -4.87022e-015 -2.18663e-015
lhumerus -22.8984 2.43746 84.1055
lradius 41.3868
lwrist 0.328515
lhand -18.2202 27.8491
lfingers 7.12502
lthumb 8.05777 57.6754
rfemur -28.9863 -4.66204 17.9782
rtibia 30.8537
rfoot -10.2171 12.2347
rtoes -9.60561
lfemur 3.07328 -12.5853 -26.9149
ltibia 22.1739
lfoot -5.83718 -19.6715
ltoes 13.1317
239
root 9.07207 17.9252 4.22787 -176.936 2.75094 180.258
lowerback 14.0922 3.12439 -1.48394
upperback 2.74436 4.21667 -0.96544
thorax -5.0108 2.23734 -0.955828
lowerneck -18.107 15.9761 -4.29327
upperneck 43.9086 21.2283 3.60419
head 18.6119 6.90137 6.10848
rclavicle -3.13583e-014 -1.27222e-014
rhumerus -40.8092 -23.8547 -65.6634
rradius 30.8712
rwrist 8.8915
rhand -11.6817 6.67629
rfingers 7.12502
rthumb 14.3638 -22.8068
lclavicle -3.13583e-014 -1.27222e-014
lhumerus -23.0143 2.21884 83.9507
lradius 41.3308
lwrist 0.240244
lhand -18.2491 27.2925
lfingers 7.12502
lthumb 8.02996 57.12
rfemur -28.839 -4.63054 17.7111
rtibia 31.676
rfoot -10.8635 11.347
rtoes -10.336
lfemur 2.67539 -12.0556 -27.0943
ltibia 22.534
lfoot -6.56156 -19.2875
ltoes 11.4526
240
root 9.01936 17.9236 4.34118 -177.074 3.40101 180.174
lowerback 14.2046 3.08983 -1.5135
upperback 2.72406 4.15929 -1.03272
thorax -5.09057 2.20866 -1.00747
lowerneck -17.9573 15.9526 -4.32491
upperneck 44.0597 21.0778 3.67526
head 18.6543 6.8087 6.10588
rclavicle -3.08613e-014 9.14409e-015
rhumerus -40.6377 -23.2589 -66.2665
rradius 31.3552
rwrist 8.37219
rhand -11.8996 6.517
rfingers 7.12502
rthumb 14.1537 -22.9809
lclavicle -3.08613e-014 9.14409e-015
lhumerus -23.1137 1.81114 83.7812
lradius 41.1617
lwrist 0.197421
lhand -18.6067 27.2116
lfingers 7.12502
lthumb 7.68482 57.0519
rfemur -28.734 -4.61368 17.4142
rtibia 32.6541
rfoot -11.4307 10.3183
rtoes -10.9247
lfemur 2.16188 -11.5764 -27.3771
ltibia 23.036
lfoot -6.7006 -18.9341
ltoes 11.3697
241
root 8.95941 17.9307 4.44889 -177.323 4.09594 180.136
lowerback 14.3306 3.04864 -1.46968
upperback 2.76024 4.11229 -1.04595
thorax -5.1172 2.18638 -1.0438
lowerneck -17.7778 15.9222 -4.44401
upperneck 44.1405 20.9621 3.71233
head 18.6364 6.72321 6.09367
rclavicle -3.86636e-014 -1.59028e-015
rhumerus -40.429 -22.3072 -66.9418
rradius 31.8791
rwrist 7.52428
rhand -12.0609 6.66873
rfingers 7.12502
rthumb 13.9983 -22.84
lclavicle -3.86636e-014 -1.59028e-015
lhumerus -23.1886 1.44453 83.6655
lradius 40.9373
lwrist 0.217741
lhand -18.8046 26.3822
lfingers 7.12502
lthumb 7.49373 56.2295
rfemur -28.5414 -4.62118 17.1897
rtibia 33.7481
rfoot -11.7299 9.21404
rtoes -10.1697
lfemur 1.76265 -11.1114 -27.653
ltibia 23.4621
lfoot -6.42186 -18.6864
ltoes 13.1377
242
root 8.89899 17.9343 4.55455 -177.586 4.7481 180.282
lowerback 14.4296 2.9894 -1.20095
upperback 2.85034 4.08308 -1.01285
thorax -5.06048 2.17175 -1.15643
lowerneck -17.7334 15.8557 -4.54117
upperneck 44.2042 20.8787 3.598
head 18.6803 6.62396 6.03706
rclavicle 2.66868e-014 -1.49089e-014
rhumerus -40.086 -21.5762 -67.5411
rradius 32.2659
rwrist 6.97188
rhand -12.1869 6.61784
rfingers 7.12502
rthumb 13.8769 -22.8992
lclavicle 2.66868e-014 -1.49089e-014
lhumerus -23.1875 1.22019 83.5919
lradius 40.6922
lwrist 0.0246505
lhand -18.6599 25.1574
lfingers 7.12502
lthumb 7.63339 54.9996
rfemur -28.2518 -4.40484 17.1424
rtibia 34.9699
rfoot -11.9746 7.56443
rtoes -8.30986
lfemur 1.50482 -10.8136 -27.7538
ltibia 23.7352
lfoot -6.31366 -18.2859
ltoes 14.1214
243
root 8.83904 17.938 4.65534 -177.808 5.48184 180.448
lowerback 14.5129 2.96072 -0.895264
upperback 2.89519 4.09315 -1.0224
thorax -5.03721 2.17389 -1.34258
lowerneck -17.7696 15.7889 -4.67237
upperneck 44.3552 20.7285 3.68769
head 18.7527 6.51428 6.07716
rclavicle 3.4191e-014 -1.94809e-014
rhumerus -39.8683 -20.9728 -68.1088
rradius 32.704
rwrist 6.6142
rhand -12.2076 6.73447
rfingers 7.12502
rthumb 13.857 -22.7839
lclavicle 3.4191e-014 -1.94809e-014
lhumerus -23.2296 0.995282 83.4442
lradius 40.4186
lwrist -0.20524
lhand -18.59 25.1073
lfingers 7.12502
lthumb 7.70088 54.9471
rfemur -28.0076 -4.02363 17.0976
rtibia 36.3121
rfoot -12.1807 5.60585
rtoes -5.83227
lfemur 1.29111 -10.5705 -27.8388
ltibia 23.9079
lfoot -6.28099 -17.7731
ltoes 14.1034
244
root 8.77916 17.9432 4.7476 -177.984 6.36314 180.36
lowerback 14.4201 2.99391 -0.916652
upperback 2.94531 4.13488 -1.08091
thorax -4.93018 2.19619 -1.39138
lowerneck -17.7215 15.7617 -4.8072
upperneck 44.4178 20.6309 3.7883
head 18.7407 6.44792 6.11268
rclavicle -1.97294e-014 1.31198e-014
rhumerus -39.6542 -20.3894 -68.5912
rradius 33.1162
rwrist 6.50948
rhand -12.0393 7.0352
rfingers 7.12502
rthumb 14.0191 -22.472
lclavicle -1.97294e-014 1.31198e-014
lhumerus -23.3788 0.966656 83.2936
lradius 40.2457
lwrist -0.420587
lhand -18.752 26.1169
lfingers 7.12502
lthumb 7.54457 55.9623
rfemur -27.8708 -3.69833 16.7667
rtibia 37.7651
rfoot -12.3248 3.85193
rtoes -3.41055
lfemur 1.0796 -10.1928 -28.1808
ltibia 23.9852
lfoot -6.22166 -17.2736
ltoes 14.0609
245
root 8.72102 17.951 4.84446 -178.125 7.12456 180.237
lowerback 14.3444 3.00873 -0.977556
upperback 2.98492 4.14632 -1.11418
thorax -4.84858 2.20354 -1.38755
lowerneck -17.7588 15.7059 -4.98966
upperneck 44.5309 20.531 3.86151
head 18.7825 6.35527 6.15699
rclavicle 1.03617e-013 -1.41137e-014
rhumerus -39.4551 -20.0068 -68.8588
rradius 33.5139
rwrist 6.69152
rhand -11.5183 7.2717
rfingers 7.12502
rthumb 14.5212 -22.2001
lclavicle 1.03617e-013 -1.41137e-014
lhumerus -23.5848 1.10083 83.1953
lradius 40.1566
lwrist -0.799064
lhand -18.7526 26.9308
lfingers 7.12502
lthumb 7.54399 56.7763
rfemur -27.7947 -3.44044 16.4282
rtibia 39.2984
rfoot -12.1998 1.79921
rtoes -2.99807
lfemur 0.841778 -9.78558 -28.4934
ltibia 23.9343
lfoot -6.16487 -16.9828
ltoes 13.1846
